<svg width="20" height="20" viewBox="0 0 20 20" fill="none" xmlns="http://www.w3.org/2000/svg">
<path d="M9.99996 7.70825C8.50419 7.70825 7.29163 8.92081 7.29163 10.4166C7.29163 11.9124 8.50419 13.1249 9.99996 13.1249C11.4957 13.1249 12.7083 11.9124 12.7083 10.4166C12.7083 8.92081 11.4957 7.70825 9.99996 7.70825Z" fill="#F59256"/>
<path fill-rule="evenodd" clip-rule="evenodd" d="M7.70829 0.208252C6.5577 0.208252 5.62496 1.14099 5.62496 2.29159V2.44039C5.62496 2.81845 5.31849 3.12492 4.94044 3.12492C2.78718 3.12492 1.04163 4.87048 1.04163 7.02373V10.866C1.04162 12.2022 1.04162 13.2497 1.12118 14.0865C1.20228 14.9395 1.37043 15.6379 1.74773 16.2536C2.14283 16.8983 2.68491 17.4404 3.32965 17.8355C3.94534 18.2128 4.64376 18.3809 5.49672 18.462C6.33352 18.5416 7.38097 18.5416 8.7171 18.5416H11.2828C12.6189 18.5416 13.6664 18.5416 14.5032 18.462C15.3562 18.3809 16.0546 18.2128 16.6703 17.8355C17.315 17.4404 17.8571 16.8983 18.2522 16.2536C18.6295 15.6379 18.7976 14.9395 18.8787 14.0865C18.9583 13.2497 18.9583 12.2022 18.9583 10.8661V7.02373C18.9583 4.87047 17.2127 3.12492 15.0595 3.12492C14.6814 3.12492 14.375 2.81845 14.375 2.4404V2.29159C14.375 1.14099 13.4422 0.208252 12.2916 0.208252H7.70829ZM6.04163 10.4166C6.04163 8.23046 7.81383 6.45825 9.99996 6.45825C12.1861 6.45825 13.9583 8.23046 13.9583 10.4166C13.9583 12.6027 12.1861 14.3749 9.99996 14.3749C7.81383 14.3749 6.04163 12.6027 6.04163 10.4166ZM15 7.91659C14.5397 7.91659 14.1666 7.54349 14.1666 7.08325C14.1666 6.62301 14.5397 6.24992 15 6.24992C15.4602 6.24992 15.8333 6.62301 15.8333 7.08325C15.8333 7.54349 15.4602 7.91659 15 7.91659Z" fill="#F59256"/>
</svg>
