<svg width="20" height="20" viewBox="0 0 20 20" fill="none" xmlns="http://www.w3.org/2000/svg">
<path d="M3.68332 17.149C3.56771 17.1488 3.4534 17.1246 3.34766 17.0778C3.24193 17.0311 3.14708 16.9628 3.06916 16.8774C2.98982 16.7927 2.92929 16.6922 2.89152 16.5825C2.85374 16.4728 2.83959 16.3563 2.84999 16.2407L3.05416 13.9957L12.4858 4.56738L15.4333 7.51405L6.00416 16.9415L3.75916 17.1457C3.73395 17.148 3.70864 17.1491 3.68332 17.149ZM16.0217 6.92488L13.075 3.97821L14.8425 2.21071C14.9199 2.13323 15.0118 2.07177 15.113 2.02983C15.2141 1.98789 15.3226 1.96631 15.4321 1.96631C15.5416 1.96631 15.65 1.98789 15.7512 2.02983C15.8524 2.07177 15.9443 2.13323 16.0217 2.21071L17.7892 3.97821C17.8666 4.05561 17.9281 4.14752 17.97 4.24868C18.012 4.34985 18.0336 4.45828 18.0336 4.5678C18.0336 4.67731 18.012 4.78575 17.97 4.88691C17.9281 4.98808 17.8666 5.07999 17.7892 5.15738L16.0225 6.92405L16.0217 6.92488Z" fill="#111111" fill-opacity="0.6"/>
</svg>
