<svg xmlns="http://www.w3.org/2000/svg" width="28" height="28" fill="none"><g filter="url(#a)"><g filter="url(#b)"><path fill="#fff" fill-opacity=".6" d="M8 3C4.687 3 2 5.734 2 9.106c0 2.723 1.05 9.185 11.386 15.717a1.158 1.158 0 0 0 1.228 0C24.95 18.29 26 11.829 26 9.106 26 5.734 23.313 3 20 3s-6 3.7-6 3.7S11.313 3 8 3Z"/><path stroke="#F59256" stroke-linecap="round" stroke-linejoin="round" stroke-width="2" d="M8 3C4.687 3 2 5.734 2 9.106c0 2.723 1.05 9.185 11.386 15.717a1.158 1.158 0 0 0 1.228 0C24.95 18.29 26 11.829 26 9.106 26 5.734 23.313 3 20 3s-6 3.7-6 3.7S11.313 3 8 3Z"/></g></g><defs><filter id="a" width="228" height="228" x="-100" y="-100" color-interpolation-filters="sRGB" filterUnits="userSpaceOnUse"><feFlood flood-opacity="0" result="BackgroundImageFix"/><feGaussianBlur in="BackgroundImageFix" stdDeviation="50"/><feComposite in2="SourceAlpha" operator="in" result="effect1_backgroundBlur_28_503"/><feBlend in="SourceGraphic" in2="effect1_backgroundBlur_28_503" result="shape"/></filter><filter id="b" width="34" height="32" x="-3" y="-2" color-interpolation-filters="sRGB" filterUnits="userSpaceOnUse"><feFlood flood-opacity="0" result="BackgroundImageFix"/><feGaussianBlur in="BackgroundImageFix" stdDeviation="2"/><feComposite in2="SourceAlpha" operator="in" result="effect1_backgroundBlur_28_503"/><feBlend in="SourceGraphic" in2="effect1_backgroundBlur_28_503" result="shape"/></filter></defs></svg>